<svg xmlns="http://www.w3.org/2000/svg" fill="none" viewBox="0 0 41 27" height="27" width="41">
<path fill="#3D3D3D" d="M32.79 11.3016C32.79 9.45494 31.2791 8 29.4884 8C27.6417 8 26.1868 9.5109 26.1868 11.3016C26.1868 11.3576 26.1868 11.4695 26.1868 11.5254V18.6882H32.79V11.5254C32.79 11.4135 32.79 11.3576 32.79 11.3016Z"></path>
<path fill="#3D3D3D" d="M14.6591 11.3016C14.6591 9.45494 13.1482 8 11.3576 8C9.56686 8 8 9.45494 8 11.3016C8 11.3576 8 11.4695 8 11.5254V18.6882H14.6032V11.5254C14.6591 11.4135 14.6591 11.3576 14.6591 11.3016Z"></path>
<path fill="#3D3D3D" d="M23.7243 11.3016C23.7243 9.45494 22.2134 8 20.4227 8C18.576 8 17.1211 9.5109 17.1211 11.3016C17.1211 11.3576 17.1211 11.4695 17.1211 11.5254V18.6882H23.7243V11.5254C23.7243 11.4135 23.7243 11.3576 23.7243 11.3016Z"></path>
</svg>
