<svg xmlns="http://www.w3.org/2000/svg" fill="none" viewBox="0 0 37 36" height="36" width="37">
<path fill="black" d="M13.2358 27.3665C13.0245 27.3665 12.8132 27.2873 12.6283 27.1552C12.2585 26.8911 12.1 26.4156 12.2585 25.993L14.1602 20.1822L9.22101 16.5901C8.85123 16.3259 8.69275 15.8769 8.85123 15.4279C9.00971 14.9789 9.3795 14.7148 9.82851 14.7148H15.9299L17.8316 8.90391C17.9637 8.4549 18.3598 8.1908 18.8089 8.1908C19.2579 8.1908 19.6541 8.48131 19.7861 8.90391L21.6615 14.7148H27.7628C28.2119 14.7148 28.608 15.0053 28.7401 15.4279C28.8722 15.8505 28.7401 16.3259 28.3703 16.5901L23.4311 20.1822L25.3329 25.993C25.4649 26.442 25.3329 26.8911 24.9631 27.1552C24.5933 27.4193 24.1178 27.4193 23.7481 27.1552L18.8089 23.563L13.8697 27.1552C13.6848 27.2873 13.4735 27.3665 13.2622 27.3665H13.2358ZM9.8021 15.7713L15.3752 19.786L13.2622 26.3364L18.8089 22.2688L24.382 26.31L22.2426 19.786L27.8156 15.7449H20.9483L18.8353 9.22089L16.7487 15.7713H9.8021Z"></path>
</svg>
