<svg xmlns="http://www.w3.org/2000/svg" fill="none" viewBox="0 0 37 35" height="35" width="37">
<path fill="black" d="M16.9077 22.8694C16.7409 22.8694 16.6112 22.7396 16.6112 22.5728C16.6112 21.1828 16.0923 20.5712 15.2397 19.7001C13.4605 17.8653 10.7917 18.1433 9.34604 18.2916C9.27191 18.2916 9.19778 18.2916 9.12364 18.3101C8.95684 18.3101 8.80857 18.1989 8.79004 18.0507C8.79004 17.8839 8.90124 17.7356 9.04951 17.717C9.12364 17.717 9.19778 17.717 9.27191 17.6985C9.99472 17.6244 11.0882 17.5132 12.2558 17.6614C13.6644 17.8468 14.7949 18.3843 15.666 19.2739C16.5741 20.2191 17.1857 20.9604 17.2043 22.5543C17.2043 22.7211 17.0745 22.8508 16.9077 22.8508V22.8694Z"></path>
<path fill="black" d="M14.4798 23.24C13.9609 23.24 13.442 23.1288 12.9416 22.7952C12.4041 22.4246 11.8295 21.6832 11.1809 20.8121C10.4951 19.904 9.71672 18.8847 8.93831 18.273C8.80857 18.1804 8.79004 17.9765 8.8827 17.8468C8.97537 17.717 9.17924 17.6985 9.30897 17.7912C10.1615 18.4584 10.9585 19.5148 11.6627 20.4415C12.2743 21.2384 12.8303 21.9797 13.2937 22.2948C14.0536 22.8138 14.869 22.647 15.8142 22.4616C16.1664 22.3875 16.5371 22.3134 16.9077 22.2763C17.0745 22.2763 17.2228 22.3875 17.2413 22.5358C17.2413 22.7026 17.1301 22.8508 16.9819 22.8694C16.6297 22.9064 16.2961 22.962 15.944 23.0362C15.4621 23.1288 14.9988 23.2215 14.5169 23.2215L14.4798 23.24Z"></path>
<path fill="black" d="M18.7796 26.3166C18.6313 26.3166 18.5016 26.2054 18.4831 26.0571C18.3163 25.0378 17.9641 24.1482 17.4081 23.3883C16.9633 22.7767 16.4073 22.2577 15.7216 21.8315C14.554 21.0901 13.479 20.9048 13.4605 20.9048C13.2937 20.8863 13.1825 20.7195 13.2196 20.5526C13.2381 20.3858 13.4049 20.2747 13.5532 20.3117C13.6088 20.3117 14.7578 20.5156 16.0181 21.3125C16.7595 21.7759 17.3896 22.3504 17.8715 23.0362C18.4831 23.8702 18.8908 24.871 19.0762 25.983C19.0947 26.1498 18.9835 26.298 18.8352 26.3166C18.8352 26.3166 18.7981 26.3166 18.7796 26.3166Z"></path>
<path fill="black" d="M20.67 22.8694C20.5032 22.8694 20.3735 22.7397 20.3735 22.5729C20.3735 20.979 20.9851 20.2376 21.9118 19.2924C22.7643 18.4028 23.9134 17.8653 25.322 17.68C26.471 17.5317 27.5645 17.6429 28.3058 17.717C28.38 17.717 28.4541 17.7171 28.5283 17.7356C28.6951 17.7356 28.8063 17.9024 28.7877 18.0692C28.7877 18.236 28.6209 18.3472 28.4541 18.3287C28.38 18.3287 28.3059 18.3287 28.2317 18.3101C26.7861 18.1619 24.1173 17.8839 22.3381 19.7187C21.504 20.5897 20.9851 21.2014 20.9666 22.5914C20.9666 22.7582 20.8368 22.8879 20.67 22.8879V22.8694Z"></path>
<path fill="black" d="M23.0979 23.24C22.6161 23.24 22.1342 23.1474 21.6708 23.0547C21.3372 22.9806 20.9851 22.925 20.633 22.8879C20.4662 22.8879 20.355 22.7211 20.3735 22.5543C20.3735 22.3875 20.5403 22.2763 20.7071 22.2948C21.0778 22.3319 21.4484 22.406 21.8006 22.4802C22.7458 22.6655 23.5613 22.8323 24.3211 22.3134C24.7659 21.9983 25.3405 21.257 25.9521 20.46C26.6564 19.5333 27.4718 18.4769 28.3058 17.8097C28.4356 17.717 28.6209 17.7356 28.7321 17.8653C28.8248 17.995 28.8063 18.1804 28.6765 18.2916C27.8981 18.9032 27.1197 19.9225 26.434 20.8307C25.7668 21.7018 25.1922 22.4431 24.6733 22.8138C24.1729 23.1474 23.6539 23.2586 23.135 23.2586L23.0979 23.24Z"></path>
<path fill="black" d="M18.7796 26.3166C18.7796 26.3166 18.7425 26.3166 18.724 26.3166C18.5572 26.2981 18.446 26.1313 18.4831 25.983C18.6684 24.871 19.0576 23.8887 19.6878 23.0362C20.1696 22.369 20.7998 21.7944 21.5411 21.3126C22.8014 20.5156 23.9505 20.3303 24.0061 20.3118C24.1729 20.2932 24.3211 20.4044 24.3397 20.5527C24.3582 20.7195 24.2655 20.8678 24.0987 20.8863C24.0987 20.8863 23.0053 21.0716 21.8377 21.813C21.1704 22.2392 20.5959 22.7582 20.1511 23.3698C19.5951 24.1297 19.243 25.0378 19.0762 26.0386C19.0576 26.1869 18.9279 26.2981 18.7796 26.2981V26.3166Z"></path>
<path fill="black" d="M18.7796 26.3166C18.6128 26.3166 18.4831 26.1869 18.4831 26.0201V13.3617C18.4831 13.1949 18.6128 13.0651 18.7796 13.0651C18.9464 13.0651 19.0761 13.1949 19.0761 13.3617V26.0201C19.0761 26.1869 18.9464 26.3166 18.7796 26.3166Z"></path>
<path fill="black" d="M18.7796 18.5325C18.7796 18.5325 18.6869 18.5325 18.6313 18.4954C18.6128 18.4954 17.9827 18.1433 17.3525 17.439C16.5185 16.5124 16.0737 15.4004 16.0737 14.2327C16.0737 13.0651 16.4815 11.7122 17.3155 10.211C17.9271 9.09896 18.5201 8.33906 18.5387 8.30199C18.5943 8.22786 18.6869 8.1908 18.7796 8.1908C18.8723 8.1908 18.9649 8.22786 19.0206 8.30199C19.0391 8.33906 19.6507 9.09896 20.2438 10.211C21.0592 11.7122 21.4855 13.0651 21.4855 14.2327C21.4855 15.4004 21.0407 16.5124 20.2067 17.439C19.5766 18.1248 18.965 18.4769 18.9279 18.4954C18.8908 18.514 18.8352 18.5325 18.7796 18.5325ZM18.7796 9.00628C18.1865 9.84029 16.6853 12.1755 16.6853 14.2327C16.6853 15.2706 17.056 16.1973 17.7973 17.0313C18.1865 17.4576 18.5757 17.7541 18.7796 17.8839C18.9835 17.7541 19.3727 17.4576 19.7619 17.0313C20.5032 16.2158 20.8739 15.2706 20.8739 14.2327C20.8739 12.1755 19.3727 9.84029 18.7796 9.00628Z"></path>
</svg>
